<?xml version="1.0" encoding="UTF-8" standalone="no"?>
<!-- Created with Inkscape (http://www.inkscape.org/) -->

<svg
   xmlns:dc="http://purl.org/dc/elements/1.1/"
   xmlns:cc="http://creativecommons.org/ns#"
   xmlns:rdf="http://www.w3.org/1999/02/22-rdf-syntax-ns#"
   xmlns:svg="http://www.w3.org/2000/svg"
   xmlns="http://www.w3.org/2000/svg"
   xmlns:sodipodi="http://sodipodi.sourceforge.net/DTD/sodipodi-0.dtd"
   xmlns:inkscape="http://www.inkscape.org/namespaces/inkscape"
   width="210mm"
   height="297mm"
   viewBox="0 0 744.09448819 1052.3622047"
   id="svg2"
   version="1.1"
   inkscape:version="0.91 r13725"
   sodipodi:docname="logo.svg"
   inkscape:export-filename="/home/a/Dev/Lisp/lila/logo.png"
   inkscape:export-xdpi="61.939999"
   inkscape:export-ydpi="61.939999">
  <defs
     id="defs4" />
  <sodipodi:namedview
     id="base"
     pagecolor="#ffffff"
     bordercolor="#666666"
     borderopacity="1.0"
     inkscape:pageopacity="0.0"
     inkscape:pageshadow="2"
     inkscape:zoom="1.4414658"
     inkscape:cx="342.45596"
     inkscape:cy="660.40714"
     inkscape:document-units="px"
     inkscape:current-layer="layer1"
     showgrid="false"
     inkscape:window-width="1440"
     inkscape:window-height="871"
     inkscape:window-x="0"
     inkscape:window-y="0"
     inkscape:window-maximized="1" />
  <metadata
     id="metadata7">
    <rdf:RDF>
      <cc:Work
         rdf:about="">
        <dc:format>image/svg+xml</dc:format>
        <dc:type
           rdf:resource="http://purl.org/dc/dcmitype/StillImage" />
        <dc:title />
      </cc:Work>
    </rdf:RDF>
  </metadata>
  <g
     inkscape:label="Layer 1"
     inkscape:groupmode="layer"
     id="layer1">
    <g
       id="g4280"
       transform="matrix(1.0000023,0,0,1.0213224,-4.6697228e-4,-9.550352)"
       inkscape:export-xdpi="60.650581"
       inkscape:export-ydpi="60.650581">
      <text
         transform="matrix(0.89068301,-0.48615804,0.51423608,0.84205042,0,0)"
         sodipodi:linespacing="125%"
         id="text4136"
         y="525.79321"
         x="20.87118"
         style="font-style:normal;font-weight:normal;font-size:163.193573px;line-height:125%;font-family:sans-serif;letter-spacing:0px;word-spacing:0px;opacity:0.5;fill:#2a2aff;fill-opacity:1;stroke:none;stroke-width:1px;stroke-linecap:butt;stroke-linejoin:miter;stroke-opacity:1"
         xml:space="preserve"><tspan
           style="font-style:normal;font-variant:normal;font-weight:normal;font-stretch:normal;font-family:Saab;-inkscape-font-specification:Saab;fill:#2a2aff"
           y="525.79321"
           x="20.87118"
           id="tspan4138"
           sodipodi:role="line">(</tspan></text>
      <path
         inkscape:connector-curvature="0"
         id="text4136-3"
         d="m 271.79748,375.68962 c -0.5138,0.83285 -1.03459,1.64677 -1.56446,2.43945 -3.29616,4.88087 -6.43059,9.34377 -9.40429,13.38672 -2.9464,3.99821 -5.88027,7.61565 -8.80274,10.85156 -2.96978,3.21009 -6.02552,6.04414 -9.16797,8.50391 -3.14245,2.45977 -6.52112,4.5821 -10.13476,6.36719 -3.66096,1.75925 -7.63264,3.19989 -11.91407,4.32226 -4.32873,1.09655 -9.17719,1.90913 -14.54687,2.4375 l -2.25391,3.69141 c 8.41985,0.77862 16.40198,0.1537 23.94727,-1.8711 7.49797,-2.05062 14.47164,-5.10231 20.92187,-9.15625 6.43024,-4.12449 12.31326,-9.05576 17.64649,-14.79296 4.3215,-4.71158 8.21108,-9.69843 11.68359,-14.95313 -0.77721,-1.17585 -1.54069,-2.35945 -2.27539,-3.5625 -1.50909,-2.4711 -2.87716,-5.03371 -4.13476,-7.66406 z"
         style="font-style:normal;font-weight:normal;font-size:163.193573px;line-height:125%;font-family:sans-serif;letter-spacing:0px;word-spacing:0px;opacity:0.5;fill:#0000d4;fill-opacity:1;stroke:none;stroke-width:1px;stroke-linecap:butt;stroke-linejoin:miter;stroke-opacity:1" />
    </g>
  </g>
</svg>
